<svg width="1080" height="1080" viewBox="0 0 1080 1080" fill="none" xmlns="http://www.w3.org/2000/svg">
  <!-- Background: Dark -->
  <rect width="1080" height="1080" fill="#0F172A"/>

  <!-- Subtle DNA helix -->
  <path opacity="0.04" d="M-100 300C100 300 0 600 200 600C400 600 300 300 500 300C700 300 600 600 800 600C1000 600 900 300 1100 300" stroke="#2563EB" stroke-width="80" stroke-linecap="round"/>
  <path opacity="0.04" d="M-100 600C100 600 0 300 200 300C400 300 300 600 500 600C700 600 600 300 800 300C1000 300 900 600 1100 600" stroke="#10B981" stroke-width="80" stroke-linecap="round"/>

  <!-- Top accent -->
  <rect width="1080" height="6" fill="#2563EB"/>

  <!-- Logo -->
  <g transform="translate(60, 40)">
    <g transform="scale(2.2)">
      <path d="M16 2 L29 9.5 V22.5 L16 30 L3 22.5 V9.5 L16 2Z" stroke="#2563EB" stroke-width="2.5" stroke-linejoin="round" fill="none"/>
      <path d="M16 8 L23 12 V20 L16 24 L9 20 V12 L16 8Z" stroke="#10B981" stroke-width="2" stroke-linejoin="round" fill="none"/>
      <circle cx="16" cy="16" r="3" fill="#2563EB"/>
      <circle cx="9" cy="12" r="2" fill="#10B981"/>
      <circle cx="23" cy="20" r="2" fill="#10B981"/>
      <circle cx="9" cy="20" r="2" fill="#10B981"/>
      <circle cx="23" cy="12" r="2" fill="#10B981"/>
      <path d="M9 12 L16 16 L23 20" stroke="#2563EB" stroke-width="1.5" stroke-linecap="round"/>
      <path d="M9 20 L16 16 L23 12" stroke="#2563EB" stroke-width="1.5" stroke-linecap="round"/>
    </g>
    <text x="80" y="45" font-family="Arial, Helvetica, sans-serif" font-weight="800" font-size="34" fill="#FFFFFF">BMP</text>
    <text x="80" y="66" font-family="Arial, Helvetica, sans-serif" font-weight="400" font-size="13" fill="#94A3B8">Bioinformatics Mentorship Program</text>
  </g>

  <!-- Mentor badge -->
  <rect x="680" y="45" width="345" height="44" rx="22" fill="#2563EB" opacity="0.15"/>
  <text x="852" y="74" text-anchor="middle" font-family="Arial, Helvetica, sans-serif" font-weight="700" font-size="18" fill="#38BDF8">Mentor with 5+ Years Experience</text>

  <!-- Main headline -->
  <text x="540" y="195" text-anchor="middle" font-family="Arial, Helvetica, sans-serif" font-weight="900" font-size="58" fill="#FFFFFF">This Program Is</text>
  <text x="540" y="270" text-anchor="middle" font-family="Arial, Helvetica, sans-serif" font-weight="900" font-size="58" fill="#2563EB">Not For Everyone.</text>

  <!-- Honest subline -->
  <text x="540" y="325" text-anchor="middle" font-family="Arial, Helvetica, sans-serif" font-weight="500" font-size="22" fill="#94A3B8">We're selective because the mentorship is intensive.</text>
  <text x="540" y="355" text-anchor="middle" font-family="Arial, Helvetica, sans-serif" font-weight="500" font-size="22" fill="#94A3B8">Here's who it's built for:</text>

  <!-- WHO IT'S FOR - checkmarks -->
  <g transform="translate(100, 400)">
    <g transform="translate(0, 0)">
      <rect width="880" height="55" rx="10" fill="#10B981" opacity="0.08"/>
      <circle cx="35" cy="28" r="14" fill="#10B981"/>
      <path d="M28 28 L33 33 L42 24" stroke="#FFFFFF" stroke-width="3" stroke-linecap="round" stroke-linejoin="round"/>
      <text x="65" y="34" font-family="Arial, Helvetica, sans-serif" font-weight="700" font-size="22" fill="#FFFFFF">Targeting MS/PhD in bioinformatics or genomics</text>
    </g>

    <g transform="translate(0, 65)">
      <rect width="880" height="55" rx="10" fill="#10B981" opacity="0.08"/>
      <circle cx="35" cy="28" r="14" fill="#10B981"/>
      <path d="M28 28 L33 33 L42 24" stroke="#FFFFFF" stroke-width="3" stroke-linecap="round" stroke-linejoin="round"/>
      <text x="65" y="34" font-family="Arial, Helvetica, sans-serif" font-weight="700" font-size="22" fill="#FFFFFF">Ready to commit 10+ hours/week for 12 weeks</text>
    </g>

    <g transform="translate(0, 130)">
      <rect width="880" height="55" rx="10" fill="#10B981" opacity="0.08"/>
      <circle cx="35" cy="28" r="14" fill="#10B981"/>
      <path d="M28 28 L33 33 L42 24" stroke="#FFFFFF" stroke-width="3" stroke-linecap="round" stroke-linejoin="round"/>
      <text x="65" y="34" font-family="Arial, Helvetica, sans-serif" font-weight="700" font-size="22" fill="#FFFFFF">Want production-grade skills, not just theory</text>
    </g>
  </g>

  <!-- WHO IT'S NOT FOR - X marks -->
  <g transform="translate(100, 610)">
    <text x="0" y="0" font-family="Arial, Helvetica, sans-serif" font-weight="800" font-size="20" fill="#64748B" letter-spacing="1">PROBABLY NOT FOR YOU IF:</text>

    <g transform="translate(0, 30)">
      <text x="0" y="20" font-family="Arial, Helvetica, sans-serif" font-weight="600" font-size="20" fill="#EF4444">✕</text>
      <text x="30" y="20" font-family="Arial, Helvetica, sans-serif" font-weight="500" font-size="20" fill="#64748B">Looking for a quick certificate</text>
    </g>
    <g transform="translate(0, 65)">
      <text x="0" y="20" font-family="Arial, Helvetica, sans-serif" font-weight="600" font-size="20" fill="#EF4444">✕</text>
      <text x="30" y="20" font-family="Arial, Helvetica, sans-serif" font-weight="500" font-size="20" fill="#64748B">Prefer passive, self-paced learning</text>
    </g>
    <g transform="translate(0, 100)">
      <text x="0" y="20" font-family="Arial, Helvetica, sans-serif" font-weight="600" font-size="20" fill="#EF4444">✕</text>
      <text x="30" y="20" font-family="Arial, Helvetica, sans-serif" font-weight="500" font-size="20" fill="#64748B">Can't dedicate serious time to learning</text>
    </g>
  </g>

  <!-- Transition -->
  <line x1="240" y1="775" x2="840" y2="775" stroke="#1E293B" stroke-width="2"/>

  <!-- Info session CTA -->
  <g transform="translate(540, 825)">
    <text text-anchor="middle" font-family="Arial, Helvetica, sans-serif" font-weight="900" font-size="28" fill="#FFFFFF">Sound Like You?</text>
    <text y="38" text-anchor="middle" font-family="Arial, Helvetica, sans-serif" font-weight="500" font-size="20" fill="#94A3B8">Register for a free info session. No payment required.</text>
    <text y="68" text-anchor="middle" font-family="Arial, Helvetica, sans-serif" font-weight="500" font-size="20" fill="#94A3B8">You'll meet the mentor and see the full curriculum live.</text>
  </g>

  <!-- Bottom CTA bar -->
  <rect y="920" width="1080" height="160" fill="#2563EB"/>

  <!-- Transparency note -->
  <text x="540" y="958" text-anchor="middle" font-family="Arial, Helvetica, sans-serif" font-weight="600" font-size="18" fill="rgba(255,255,255,0.75)">Attend first. Decide after. No strings attached.</text>

  <rect x="190" y="975" width="700" height="60" rx="30" fill="#FFFFFF"/>
  <text x="540" y="1015" text-anchor="middle" font-family="Arial, Helvetica, sans-serif" font-weight="900" font-size="28" fill="#2563EB">Register for Free Info Session</text>

  <text x="540" y="1060" text-anchor="middle" font-family="Arial, Helvetica, sans-serif" font-weight="700" font-size="20" fill="rgba(255,255,255,0.8)">mdjubayerhossain.com/bmp</text>
</svg>