<svg width="1080" height="1080" viewBox="0 0 1080 1080" fill="none" xmlns="http://www.w3.org/2000/svg">
  <!-- Background -->
  <rect width="1080" height="1080" fill="#FFFFFF"/>

  <!-- Top section: dark -->
  <rect width="1080" height="480" fill="#0F172A"/>

  <!-- DNA helix decoration -->
  <path opacity="0.04" d="M-100 100C100 100 0 400 200 400C400 400 300 100 500 100C700 100 600 400 800 400C1000 400 900 100 1100 100" stroke="#2563EB" stroke-width="100" stroke-linecap="round"/>
  <path opacity="0.04" d="M-100 400C100 400 0 100 200 100C400 100 300 400 500 400C700 400 600 100 800 100C1000 100 900 400 1100 400" stroke="#10B981" stroke-width="100" stroke-linecap="round"/>

  <!-- Logo -->
  <g transform="translate(60, 40)">
    <g transform="scale(2)">
      <path d="M16 2 L29 9.5 V22.5 L16 30 L3 22.5 V9.5 L16 2Z" stroke="#2563EB" stroke-width="2.5" stroke-linejoin="round" fill="none"/>
      <path d="M16 8 L23 12 V20 L16 24 L9 20 V12 L16 8Z" stroke="#10B981" stroke-width="2" stroke-linejoin="round" fill="none"/>
      <circle cx="16" cy="16" r="3" fill="#2563EB"/>
      <circle cx="9" cy="12" r="2" fill="#10B981"/>
      <circle cx="23" cy="20" r="2" fill="#10B981"/>
      <circle cx="9" cy="20" r="2" fill="#10B981"/>
      <circle cx="23" cy="12" r="2" fill="#10B981"/>
      <path d="M9 12 L16 16 L23 20" stroke="#2563EB" stroke-width="1.5" stroke-linecap="round"/>
      <path d="M9 20 L16 16 L23 12" stroke="#2563EB" stroke-width="1.5" stroke-linecap="round"/>
    </g>
    <text x="75" y="42" font-family="Arial, Helvetica, sans-serif" font-weight="800" font-size="32" fill="#FFFFFF">BMP</text>
  </g>

  <!-- Mentor experience badge -->
  <rect x="680" y="35" width="345" height="44" rx="22" fill="#2563EB" opacity="0.2"/>
  <text x="852" y="64" text-anchor="middle" font-family="Arial, Helvetica, sans-serif" font-weight="700" font-size="18" fill="#38BDF8">Mentor with 5+ Years Experience</text>

  <!-- Main question -->
  <text x="540" y="170" text-anchor="middle" font-family="Arial, Helvetica, sans-serif" font-weight="900" font-size="52" fill="#FFFFFF">Still Struggling With</text>
  <text x="540" y="240" text-anchor="middle" font-family="Arial, Helvetica, sans-serif" font-weight="900" font-size="52" fill="#2563EB">Bioinformatics?</text>

  <!-- Pain points -->
  <g transform="translate(120, 290)">
    <g transform="translate(0, 0)">
      <text x="0" y="0" font-family="Arial, Helvetica, sans-serif" font-weight="700" font-size="24" fill="#EF4444">✕</text>
      <text x="35" y="0" font-family="Arial, Helvetica, sans-serif" font-weight="600" font-size="22" fill="#94A3B8">Linux command line feels impossible</text>
    </g>
    <g transform="translate(0, 45)">
      <text x="0" y="0" font-family="Arial, Helvetica, sans-serif" font-weight="700" font-size="24" fill="#EF4444">✕</text>
      <text x="35" y="0" font-family="Arial, Helvetica, sans-serif" font-weight="600" font-size="22" fill="#94A3B8">Tool installation = dependency hell</text>
    </g>
    <g transform="translate(0, 90)">
      <text x="0" y="0" font-family="Arial, Helvetica, sans-serif" font-weight="700" font-size="24" fill="#EF4444">✕</text>
      <text x="35" y="0" font-family="Arial, Helvetica, sans-serif" font-weight="600" font-size="22" fill="#94A3B8">Too many tutorials, no clear path</text>
    </g>
    <g transform="translate(0, 135)">
      <text x="0" y="0" font-family="Arial, Helvetica, sans-serif" font-weight="700" font-size="24" fill="#EF4444">✕</text>
      <text x="35" y="0" font-family="Arial, Helvetica, sans-serif" font-weight="600" font-size="22" fill="#94A3B8">FASTQ, BAM, VCF... file format chaos</text>
    </g>
  </g>

  <!-- Transition arrow -->
  <g transform="translate(540, 500)">
    <polygon points="0,-20 30,20 -30,20" fill="#2563EB"/>
  </g>

  <!-- Solution section -->
  <text x="540" y="580" text-anchor="middle" font-family="Arial, Helvetica, sans-serif" font-weight="900" font-size="42" fill="#0F172A">We Fix That in 12 Weeks.</text>

  <!-- Solution cards -->
  <g transform="translate(60, 620)">
    <!-- Card 1 -->
    <g transform="translate(0, 0)">
      <rect width="300" height="140" rx="16" fill="#EFF6FF" stroke="#BFDBFE" stroke-width="1.5"/>
      <circle cx="40" cy="45" r="22" fill="#2563EB"/>
      <text x="40" y="52" text-anchor="middle" font-family="Arial, Helvetica, sans-serif" font-weight="900" font-size="20" fill="#FFFFFF">01</text>
      <text x="75" y="50" font-family="Arial, Helvetica, sans-serif" font-weight="800" font-size="20" fill="#0F172A">Linux &amp; HPC</text>
      <text x="20" y="90" font-family="Arial, Helvetica, sans-serif" font-weight="500" font-size="16" fill="#64748B">From zero to production</text>
      <text x="20" y="115" font-family="Arial, Helvetica, sans-serif" font-weight="500" font-size="16" fill="#64748B">on HPC clusters</text>
    </g>

    <!-- Card 2 -->
    <g transform="translate(320, 0)">
      <rect width="300" height="140" rx="16" fill="#ECFDF5" stroke="#A7F3D0" stroke-width="1.5"/>
      <circle cx="40" cy="45" r="22" fill="#10B981"/>
      <text x="40" y="52" text-anchor="middle" font-family="Arial, Helvetica, sans-serif" font-weight="900" font-size="20" fill="#FFFFFF">02</text>
      <text x="75" y="50" font-family="Arial, Helvetica, sans-serif" font-weight="800" font-size="20" fill="#0F172A">Pipelines</text>
      <text x="20" y="90" font-family="Arial, Helvetica, sans-serif" font-weight="500" font-size="16" fill="#64748B">Nextflow + Docker</text>
      <text x="20" y="115" font-family="Arial, Helvetica, sans-serif" font-weight="500" font-size="16" fill="#64748B">reproducible workflows</text>
    </g>

    <!-- Card 3 -->
    <g transform="translate(640, 0)">
      <rect width="300" height="140" rx="16" fill="#EFF6FF" stroke="#BFDBFE" stroke-width="1.5"/>
      <circle cx="40" cy="45" r="22" fill="#2563EB"/>
      <text x="40" y="52" text-anchor="middle" font-family="Arial, Helvetica, sans-serif" font-weight="900" font-size="20" fill="#FFFFFF">03</text>
      <text x="75" y="50" font-family="Arial, Helvetica, sans-serif" font-weight="800" font-size="20" fill="#0F172A">AI + Research</text>
      <text x="20" y="90" font-family="Arial, Helvetica, sans-serif" font-weight="500" font-size="16" fill="#64748B">Claude &amp; Gemini for</text>
      <text x="20" y="115" font-family="Arial, Helvetica, sans-serif" font-weight="500" font-size="16" fill="#64748B">10x productivity</text>
    </g>
  </g>

  <!-- Mentor section -->
  <g transform="translate(60, 810)">
    <text y="20" font-family="Arial, Helvetica, sans-serif" font-weight="600" font-size="18" fill="#64748B">MENTORED BY</text>
    <text y="55" font-family="Arial, Helvetica, sans-serif" font-weight="900" font-size="32" fill="#0F172A">Md. Jubayer Hossain</text>
    <text y="85" font-family="Arial, Helvetica, sans-serif" font-weight="500" font-size="20" fill="#64748B">Founder &amp; CEO, DeepBio Limited</text>
  </g>

  <!-- Bottom CTA -->
  <rect y="930" width="1080" height="150" fill="#0F172A"/>
  <rect x="60" y="955" width="500" height="60" rx="30" fill="#2563EB"/>
  <text x="310" y="995" text-anchor="middle" font-family="Arial, Helvetica, sans-serif" font-weight="900" font-size="28" fill="#FFFFFF">Apply → Cohort 02</text>
  <text x="770" y="985" text-anchor="middle" font-family="Arial, Helvetica, sans-serif" font-weight="700" font-size="20" fill="#94A3B8">Deadline: June 25</text>
  <text x="770" y="1015" text-anchor="middle" font-family="Arial, Helvetica, sans-serif" font-weight="800" font-size="22" fill="#FFFFFF">mdjubayerhossain.com/bmp</text>

  <!-- Bottom accent -->
  <rect y="1074" width="1080" height="6" fill="#10B981"/>
</svg>