<svg width="1080" height="1080" viewBox="0 0 1080 1080" fill="none" xmlns="http://www.w3.org/2000/svg">
  <!-- Background gradient effect -->
  <rect width="1080" height="1080" fill="#F8FAFC"/>

  <!-- Decorative circles -->
  <circle cx="900" cy="150" r="300" fill="#2563EB" opacity="0.03"/>
  <circle cx="180" cy="950" r="250" fill="#10B981" opacity="0.03"/>

  <!-- Top bar -->
  <rect width="1080" height="8" fill="#2563EB"/>

  <!-- Logo -->
  <g transform="translate(60, 40)">
    <g transform="scale(2.2)">
      <path d="M16 2 L29 9.5 V22.5 L16 30 L3 22.5 V9.5 L16 2Z" stroke="#2563EB" stroke-width="2.5" stroke-linejoin="round" fill="none"/>
      <path d="M16 8 L23 12 V20 L16 24 L9 20 V12 L16 8Z" stroke="#10B981" stroke-width="2" stroke-linejoin="round" fill="none"/>
      <circle cx="16" cy="16" r="3" fill="#2563EB"/>
      <circle cx="9" cy="12" r="2" fill="#10B981"/>
      <circle cx="23" cy="20" r="2" fill="#10B981"/>
      <circle cx="9" cy="20" r="2" fill="#10B981"/>
      <circle cx="23" cy="12" r="2" fill="#10B981"/>
      <path d="M9 12 L16 16 L23 20" stroke="#2563EB" stroke-width="1.5" stroke-linecap="round"/>
      <path d="M9 20 L16 16 L23 12" stroke="#2563EB" stroke-width="1.5" stroke-linecap="round"/>
    </g>
    <text x="85" y="44" font-family="Arial, Helvetica, sans-serif" font-weight="800" font-size="34" fill="#0F172A">BMP</text>
    <text x="85" y="66" font-family="Arial, Helvetica, sans-serif" font-weight="400" font-size="13" fill="#64748B">Bioinformatics Mentorship Program</text>
  </g>

  <!-- Flash offer badge + mentor badge -->
  <g transform="translate(700, 18)">
    <rect width="320" height="42" rx="21" fill="#EF4444"/>
    <text x="160" y="28" text-anchor="middle" font-family="Arial, Helvetica, sans-serif" font-weight="900" font-size="20" fill="#FFFFFF">JUNE FLASH OFFER</text>
  </g>
  <g transform="translate(700, 68)">
    <rect width="320" height="38" rx="19" fill="#2563EB" opacity="0.1"/>
    <text x="160" y="26" text-anchor="middle" font-family="Arial, Helvetica, sans-serif" font-weight="700" font-size="16" fill="#2563EB">Mentor with 5+ Years Experience</text>
  </g>

  <!-- Main headline -->
  <text x="540" y="210" text-anchor="middle" font-family="Arial, Helvetica, sans-serif" font-weight="900" font-size="64" fill="#0F172A">Master Bioinformatics</text>
  <text x="540" y="285" text-anchor="middle" font-family="Arial, Helvetica, sans-serif" font-weight="900" font-size="64" fill="#0F172A">in 12 Weeks</text>

  <!-- Discount card -->
  <g transform="translate(140, 340)">
    <rect width="800" height="260" rx="24" fill="#FFFFFF" stroke="#E2E8F0" stroke-width="2"/>
    <!-- Shadow effect -->
    <rect x="4" y="4" width="800" height="260" rx="24" fill="#000000" opacity="0.03"/>

    <!-- 50% OFF badge -->
    <rect x="280" y="-25" width="240" height="50" rx="25" fill="#10B981"/>
    <text x="400" y="8" text-anchor="middle" font-family="Arial, Helvetica, sans-serif" font-weight="900" font-size="28" fill="#FFFFFF">50% OFF</text>

    <!-- Price display -->
    <g transform="translate(400, 90)">
      <!-- Original price (strikethrough) -->
      <text text-anchor="middle" font-family="Arial, Helvetica, sans-serif" font-weight="600" font-size="32" fill="#94A3B8">
        <tspan text-decoration="line-through">10,200 BDT/month</tspan>
      </text>

      <!-- New price -->
      <text y="80" text-anchor="middle" font-family="Arial, Helvetica, sans-serif" font-weight="900" font-size="72" fill="#2563EB">5,100</text>
      <text y="80" x="145" font-family="Arial, Helvetica, sans-serif" font-weight="700" font-size="28" fill="#64748B">BDT/mo</text>
    </g>

    <text x="400" y="215" text-anchor="middle" font-family="Arial, Helvetica, sans-serif" font-weight="600" font-size="20" fill="#64748B">Join by June 25 to lock in this rate</text>
  </g>

  <!-- What you get -->
  <g transform="translate(100, 660)">
    <text x="440" y="0" text-anchor="middle" font-family="Arial, Helvetica, sans-serif" font-weight="800" font-size="28" fill="#0F172A">What You Get</text>

    <g transform="translate(0, 40)">
      <!-- Row 1 -->
      <g transform="translate(0, 0)">
        <rect width="420" height="55" rx="10" fill="#EFF6FF"/>
        <circle cx="30" cy="28" r="10" fill="#2563EB"/>
        <path d="M25 28 L28 31 L35 24" stroke="#FFFFFF" stroke-width="2.5" stroke-linecap="round" stroke-linejoin="round"/>
        <text x="55" y="34" font-family="Arial, Helvetica, sans-serif" font-weight="700" font-size="20" fill="#0F172A">Complete Bioinformatics Roadmap</text>
      </g>
      <g transform="translate(440, 0)">
        <rect width="420" height="55" rx="10" fill="#ECFDF5"/>
        <circle cx="30" cy="28" r="10" fill="#10B981"/>
        <path d="M25 28 L28 31 L35 24" stroke="#FFFFFF" stroke-width="2.5" stroke-linecap="round" stroke-linejoin="round"/>
        <text x="55" y="34" font-family="Arial, Helvetica, sans-serif" font-weight="700" font-size="20" fill="#0F172A">Nextflow &amp; Docker Mastery</text>
      </g>

      <!-- Row 2 -->
      <g transform="translate(0, 65)">
        <rect width="420" height="55" rx="10" fill="#EFF6FF"/>
        <circle cx="30" cy="28" r="10" fill="#2563EB"/>
        <path d="M25 28 L28 31 L35 24" stroke="#FFFFFF" stroke-width="2.5" stroke-linecap="round" stroke-linejoin="round"/>
        <text x="55" y="34" font-family="Arial, Helvetica, sans-serif" font-weight="700" font-size="20" fill="#0F172A">Publication Pathway Guidance</text>
      </g>
      <g transform="translate(440, 65)">
        <rect width="420" height="55" rx="10" fill="#ECFDF5"/>
        <circle cx="30" cy="28" r="10" fill="#10B981"/>
        <path d="M25 28 L28 31 L35 24" stroke="#FFFFFF" stroke-width="2.5" stroke-linecap="round" stroke-linejoin="round"/>
        <text x="55" y="34" font-family="Arial, Helvetica, sans-serif" font-weight="700" font-size="20" fill="#0F172A">AI Productivity Training</text>
      </g>

      <!-- Row 3 -->
      <g transform="translate(0, 130)">
        <rect width="420" height="55" rx="10" fill="#EFF6FF"/>
        <circle cx="30" cy="28" r="10" fill="#2563EB"/>
        <path d="M25 28 L28 31 L35 24" stroke="#FFFFFF" stroke-width="2.5" stroke-linecap="round" stroke-linejoin="round"/>
        <text x="55" y="34" font-family="Arial, Helvetica, sans-serif" font-weight="700" font-size="20" fill="#0F172A">Research Portfolio on GitHub</text>
      </g>
      <g transform="translate(440, 130)">
        <rect width="420" height="55" rx="10" fill="#ECFDF5"/>
        <circle cx="30" cy="28" r="10" fill="#10B981"/>
        <path d="M25 28 L28 31 L35 24" stroke="#FFFFFF" stroke-width="2.5" stroke-linecap="round" stroke-linejoin="round"/>
        <text x="55" y="34" font-family="Arial, Helvetica, sans-serif" font-weight="700" font-size="20" fill="#0F172A">Professional Certificate</text>
      </g>
    </g>
  </g>

  <!-- Bottom CTA -->
  <rect y="920" width="1080" height="160" fill="#0F172A"/>
  <rect x="190" y="945" width="700" height="65" rx="33" fill="#2563EB"/>
  <text x="540" y="988" text-anchor="middle" font-family="Arial, Helvetica, sans-serif" font-weight="900" font-size="30" fill="#FFFFFF">APPLY NOW</text>
  <text x="540" y="1045" text-anchor="middle" font-family="Arial, Helvetica, sans-serif" font-weight="700" font-size="24" fill="#94A3B8">mdjubayerhossain.com/bmp</text>
</svg>