<svg width="1080" height="1080" viewBox="0 0 1080 1080" fill="none" xmlns="http://www.w3.org/2000/svg">
  <!-- Background: Dark navy -->
  <rect width="1080" height="1080" fill="#0F172A"/>

  <!-- Subtle decoration -->
  <path opacity="0.06" d="M-100 200C100 200 0 500 200 500C400 500 300 200 500 200C700 200 600 500 800 500C1000 500 900 200 1100 200" stroke="#06B6D4" stroke-width="80" stroke-linecap="round"/>
  <path opacity="0.06" d="M-100 500C100 500 0 200 200 200C400 200 300 500 500 500C700 500 600 200 800 200C1000 200 900 500 1100 500" stroke="#2563EB" stroke-width="80" stroke-linecap="round"/>

  <!-- Top accent line -->
  <rect y="0" width="1080" height="6" fill="#06B6D4"/>

  <!-- Logo -->
  <g transform="translate(60, 50)">
    <g transform="scale(2.5)">
      <path d="M16 2 L29 9.5 V22.5 L16 30 L3 22.5 V9.5 L16 2Z" stroke="#2563EB" stroke-width="2.5" stroke-linejoin="round" fill="none"/>
      <path d="M16 8 L23 12 V20 L16 24 L9 20 V12 L16 8Z" stroke="#10B981" stroke-width="2" stroke-linejoin="round" fill="none"/>
      <circle cx="16" cy="16" r="3" fill="#2563EB"/>
      <circle cx="9" cy="12" r="2" fill="#10B981"/>
      <circle cx="23" cy="20" r="2" fill="#10B981"/>
      <circle cx="9" cy="20" r="2" fill="#10B981"/>
      <circle cx="23" cy="12" r="2" fill="#10B981"/>
      <path d="M9 12 L16 16 L23 20" stroke="#2563EB" stroke-width="1.5" stroke-linecap="round"/>
      <path d="M9 20 L16 16 L23 12" stroke="#2563EB" stroke-width="1.5" stroke-linecap="round"/>
    </g>
    <text x="85" y="50" font-family="Arial, Helvetica, sans-serif" font-weight="800" font-size="38" fill="#FFFFFF">BMP</text>
    <text x="85" y="72" font-family="Arial, Helvetica, sans-serif" font-weight="400" font-size="14" fill="#94A3B8">Bioinformatics Mentorship Program</text>
  </g>

  <!-- Badge -->
  <rect x="680" y="55" width="345" height="44" rx="22" fill="#06B6D4" opacity="0.15"/>
  <text x="852" y="84" text-anchor="middle" font-family="Arial, Helvetica, sans-serif" font-weight="700" font-size="18" fill="#22D3EE">Where Will You Apply This?</text>

  <!-- Eyebrow -->
  <text x="540" y="190" text-anchor="middle" font-family="Arial, Helvetica, sans-serif" font-weight="700" font-size="22" fill="#94A3B8" letter-spacing="3">AFTER THIS PROGRAM, YOU CAN WORK IN</text>

  <!-- Main Headline -->
  <text x="540" y="290" text-anchor="middle" font-family="Arial, Helvetica, sans-serif" font-weight="900" font-size="76" fill="#FFFFFF">Drug</text>
  <text x="540" y="380" text-anchor="middle" font-family="Arial, Helvetica, sans-serif" font-weight="900" font-size="76" fill="#06B6D4">Discovery</text>
  <text x="540" y="460" text-anchor="middle" font-family="Arial, Helvetica, sans-serif" font-weight="900" font-size="76" fill="#FFFFFF">Research.</text>

  <!-- What you'll do section -->
  <line x1="390" y1="500" x2="690" y2="500" stroke="#1E293B" stroke-width="2"/>

  <g transform="translate(120, 545)">
    <circle cx="0" cy="0" r="8" fill="#10B981"/>
    <text x="22" y="6" font-family="Arial, Helvetica, sans-serif" font-weight="600" font-size="22" fill="#E2E8F0">Screen drug targets from expression data</text>
  </g>
  <g transform="translate(120, 595)">
    <circle cx="0" cy="0" r="8" fill="#10B981"/>
    <text x="22" y="6" font-family="Arial, Helvetica, sans-serif" font-weight="600" font-size="22" fill="#E2E8F0">Build deep learning models for drug response</text>
  </g>
  <g transform="translate(120, 645)">
    <circle cx="0" cy="0" r="8" fill="#10B981"/>
    <text x="22" y="6" font-family="Arial, Helvetica, sans-serif" font-weight="600" font-size="22" fill="#E2E8F0">Analyze pharmacogenomic datasets</text>
  </g>
  <g transform="translate(120, 695)">
    <circle cx="0" cy="0" r="8" fill="#10B981"/>
    <text x="22" y="6" font-family="Arial, Helvetica, sans-serif" font-weight="600" font-size="22" fill="#E2E8F0">Identify biomarkers for treatment selection</text>
  </g>

  <!-- Skills you'll use -->
  <text x="540" y="780" text-anchor="middle" font-family="Arial, Helvetica, sans-serif" font-weight="800" font-size="16" fill="#64748B" letter-spacing="2">SKILLS YOU'LL USE</text>
  <g transform="translate(540, 800)">
    <rect x="-430" y="0" width="160" height="38" rx="19" fill="#1E293B"/>
    <text x="-350" y="25" text-anchor="middle" font-family="Arial, Helvetica, sans-serif" font-weight="700" font-size="15" fill="#22D3EE">RNA-Seq</text>

    <rect x="-250" y="0" width="170" height="38" rx="19" fill="#1E293B"/>
    <text x="-165" y="25" text-anchor="middle" font-family="Arial, Helvetica, sans-serif" font-weight="700" font-size="15" fill="#22D3EE">Deep Learning</text>

    <rect x="-60" y="0" width="130" height="38" rx="19" fill="#1E293B"/>
    <text x="5" y="25" text-anchor="middle" font-family="Arial, Helvetica, sans-serif" font-weight="700" font-size="15" fill="#22D3EE">Python</text>

    <rect x="90" y="0" width="150" height="38" rx="19" fill="#1E293B"/>
    <text x="165" y="25" text-anchor="middle" font-family="Arial, Helvetica, sans-serif" font-weight="700" font-size="15" fill="#22D3EE">Nextflow</text>

    <rect x="260" y="0" width="170" height="38" rx="19" fill="#1E293B"/>
    <text x="345" y="25" text-anchor="middle" font-family="Arial, Helvetica, sans-serif" font-weight="700" font-size="15" fill="#22D3EE">Biomarkers</text>
  </g>

  <!-- CTA -->
  <rect x="140" y="870" width="800" height="65" rx="33" fill="#06B6D4"/>
  <text x="540" y="912" text-anchor="middle" font-family="Arial, Helvetica, sans-serif" font-weight="800" font-size="28" fill="#0F172A">12 Weeks to Drug Discovery Ready</text>

  <!-- Footer -->
  <text x="540" y="980" text-anchor="middle" font-family="Arial, Helvetica, sans-serif" font-weight="700" font-size="22" fill="#64748B">Cohort 02: July–Sept 2026</text>
  <text x="540" y="1020" text-anchor="middle" font-family="Arial, Helvetica, sans-serif" font-weight="800" font-size="28" fill="#FFFFFF">mdjubayerhossain.com/bmp</text>

  <!-- Bottom accent -->
  <rect y="1074" width="1080" height="6" fill="#10B981"/>
</svg>