<svg width="1080" height="1080" viewBox="0 0 1080 1080" fill="none" xmlns="http://www.w3.org/2000/svg">
  <!-- Background: Dark navy -->
  <rect width="1080" height="1080" fill="#0F172A"/>

  <!-- Subtle DNA helix decoration -->
  <path opacity="0.06" d="M-100 200C100 200 0 500 200 500C400 500 300 200 500 200C700 200 600 500 800 500C1000 500 900 200 1100 200" stroke="#2563EB" stroke-width="80" stroke-linecap="round"/>
  <path opacity="0.06" d="M-100 500C100 500 0 200 200 200C400 200 300 500 500 500C700 500 600 200 800 200C1000 200 900 500 1100 500" stroke="#10B981" stroke-width="80" stroke-linecap="round"/>

  <!-- Top accent line -->
  <rect y="0" width="1080" height="6" fill="#2563EB"/>

  <!-- Logo -->
  <g transform="translate(60, 50)">
    <g transform="scale(2.5)">
      <path d="M16 2 L29 9.5 V22.5 L16 30 L3 22.5 V9.5 L16 2Z" stroke="#2563EB" stroke-width="2.5" stroke-linejoin="round" fill="none"/>
      <path d="M16 8 L23 12 V20 L16 24 L9 20 V12 L16 8Z" stroke="#10B981" stroke-width="2" stroke-linejoin="round" fill="none"/>
      <circle cx="16" cy="16" r="3" fill="#2563EB"/>
      <circle cx="9" cy="12" r="2" fill="#10B981"/>
      <circle cx="23" cy="20" r="2" fill="#10B981"/>
      <circle cx="9" cy="20" r="2" fill="#10B981"/>
      <circle cx="23" cy="12" r="2" fill="#10B981"/>
      <path d="M9 12 L16 16 L23 20" stroke="#2563EB" stroke-width="1.5" stroke-linecap="round"/>
      <path d="M9 20 L16 16 L23 12" stroke="#2563EB" stroke-width="1.5" stroke-linecap="round"/>
    </g>
    <text x="85" y="50" font-family="Arial, Helvetica, sans-serif" font-weight="800" font-size="38" fill="#FFFFFF">BMP</text>
    <text x="85" y="72" font-family="Arial, Helvetica, sans-serif" font-weight="400" font-size="14" fill="#94A3B8">Bioinformatics Mentorship Program</text>
  </g>

  <!-- Badge: Mentor experience -->
  <rect x="680" y="55" width="345" height="44" rx="22" fill="#2563EB" opacity="0.15"/>
  <text x="852" y="84" text-anchor="middle" font-family="Arial, Helvetica, sans-serif" font-weight="700" font-size="18" fill="#38BDF8">Mentor with 5+ Years Experience</text>

  <!-- Main Headline -->
  <text x="540" y="260" text-anchor="middle" font-family="Arial, Helvetica, sans-serif" font-weight="900" font-size="72" fill="#FFFFFF">Launch Your</text>
  <text x="540" y="350" text-anchor="middle" font-family="Arial, Helvetica, sans-serif" font-weight="900" font-size="72" fill="#2563EB">Bioinformatics</text>
  <text x="540" y="440" text-anchor="middle" font-family="Arial, Helvetica, sans-serif" font-weight="900" font-size="72" fill="#FFFFFF">Research Career.</text>

  <!-- Subheadline -->
  <text x="540" y="510" text-anchor="middle" font-family="Arial, Helvetica, sans-serif" font-weight="500" font-size="26" fill="#94A3B8">12-week intensive mentorship for researchers targeting</text>
  <text x="540" y="545" text-anchor="middle" font-family="Arial, Helvetica, sans-serif" font-weight="500" font-size="26" fill="#94A3B8">PhD programs &amp; bioinformatics careers.</text>

  <!-- Divider -->
  <line x1="390" y1="590" x2="690" y2="590" stroke="#1E293B" stroke-width="2"/>

  <!-- Key outcomes -->
  <g transform="translate(140, 630)">
    <circle cx="0" cy="0" r="8" fill="#10B981"/>
    <text x="22" y="6" font-family="Arial, Helvetica, sans-serif" font-weight="700" font-size="24" fill="#FFFFFF">MS/PhD Readiness</text>

    <circle cx="340" cy="0" r="8" fill="#10B981"/>
    <text x="362" y="6" font-family="Arial, Helvetica, sans-serif" font-weight="700" font-size="24" fill="#FFFFFF">Production Pipelines</text>
  </g>
  <g transform="translate(140, 680)">
    <circle cx="0" cy="0" r="8" fill="#10B981"/>
    <text x="22" y="6" font-family="Arial, Helvetica, sans-serif" font-weight="700" font-size="24" fill="#FFFFFF">RA Recruitment Path</text>

    <circle cx="340" cy="0" r="8" fill="#10B981"/>
    <text x="362" y="6" font-family="Arial, Helvetica, sans-serif" font-weight="700" font-size="24" fill="#FFFFFF">AI-Powered Research</text>
  </g>

  <!-- Technical Mastery - Pill tags grid -->
  <g transform="translate(540, 730)">
    <text y="-10" text-anchor="middle" font-family="Arial, Helvetica, sans-serif" font-weight="800" font-size="18" fill="#64748B" letter-spacing="2">TECHNICAL MASTERY STACK</text>
    <!-- Row 1 -->
    <g transform="translate(0, 22)">
      <rect x="-460" y="0" width="130" height="38" rx="19" fill="#1E293B"/>
      <text x="-395" y="25" text-anchor="middle" font-family="Arial, Helvetica, sans-serif" font-weight="700" font-size="15" fill="#38BDF8">Linux/HPC</text>

      <rect x="-310" y="0" width="140" height="38" rx="19" fill="#1E293B"/>
      <text x="-240" y="25" text-anchor="middle" font-family="Arial, Helvetica, sans-serif" font-weight="700" font-size="15" fill="#38BDF8">Nextflow</text>

      <rect x="-150" y="0" width="120" height="38" rx="19" fill="#1E293B"/>
      <text x="-90" y="25" text-anchor="middle" font-family="Arial, Helvetica, sans-serif" font-weight="700" font-size="15" fill="#38BDF8">Docker</text>

      <rect x="-10" y="0" width="120" height="38" rx="19" fill="#1E293B"/>
      <text x="50" y="25" text-anchor="middle" font-family="Arial, Helvetica, sans-serif" font-weight="700" font-size="15" fill="#38BDF8">Python</text>

      <rect x="130" y="0" width="75" height="38" rx="19" fill="#1E293B"/>
      <text x="167" y="25" text-anchor="middle" font-family="Arial, Helvetica, sans-serif" font-weight="700" font-size="15" fill="#38BDF8">R</text>

      <rect x="225" y="0" width="90" height="38" rx="19" fill="#1E293B"/>
      <text x="270" y="25" text-anchor="middle" font-family="Arial, Helvetica, sans-serif" font-weight="700" font-size="15" fill="#38BDF8">Git</text>

      <rect x="335" y="0" width="125" height="38" rx="19" fill="#1E293B"/>
      <text x="397" y="25" text-anchor="middle" font-family="Arial, Helvetica, sans-serif" font-weight="700" font-size="15" fill="#38BDF8">Claude AI</text>
    </g>
    <!-- Row 2 -->
    <g transform="translate(0, 70)">
      <rect x="-380" y="0" width="90" height="38" rx="19" fill="#0D3320"/>
      <text x="-335" y="25" text-anchor="middle" font-family="Arial, Helvetica, sans-serif" font-weight="700" font-size="15" fill="#10B981">NGS</text>

      <rect x="-270" y="0" width="170" height="38" rx="19" fill="#0D3320"/>
      <text x="-185" y="25" text-anchor="middle" font-family="Arial, Helvetica, sans-serif" font-weight="700" font-size="15" fill="#10B981">Bulk RNA-Seq</text>

      <rect x="-80" y="0" width="165" height="38" rx="19" fill="#0D3320"/>
      <text x="2" y="25" text-anchor="middle" font-family="Arial, Helvetica, sans-serif" font-weight="700" font-size="15" fill="#10B981">Single-Cell</text>

      <rect x="105" y="0" width="195" height="38" rx="19" fill="#0D3320"/>
      <text x="202" y="25" text-anchor="middle" font-family="Arial, Helvetica, sans-serif" font-weight="700" font-size="15" fill="#10B981">Deep Learning</text>
    </g>
  </g>

  <!-- Cohort badge -->
  <rect x="140" y="850" width="800" height="65" rx="33" fill="#2563EB"/>
  <text x="540" y="892" text-anchor="middle" font-family="Arial, Helvetica, sans-serif" font-weight="800" font-size="28" fill="#FFFFFF">Cohort 02: July–Sept 2026 | Apply Now</text>

  <!-- Footer CTA -->
  <text x="540" y="970" text-anchor="middle" font-family="Arial, Helvetica, sans-serif" font-weight="700" font-size="24" fill="#64748B">No Payment Before Info Session</text>
  <text x="540" y="1010" text-anchor="middle" font-family="Arial, Helvetica, sans-serif" font-weight="800" font-size="28" fill="#FFFFFF">mdjubayerhossain.com/bmp</text>

  <!-- Bottom accent -->
  <rect y="1074" width="1080" height="6" fill="#10B981"/>
</svg>