<svg width="1080" height="1080" viewBox="0 0 1080 1080" fill="none" xmlns="http://www.w3.org/2000/svg">
  <!-- Background -->
  <rect width="1080" height="1080" fill="#FFFFFF"/>
  <rect width="1080" height="340" fill="#F8FAFC"/>
  
  <!-- Decorative Helix Patterns -->
  <path opacity="0.05" d="M0 150C200 150 100 450 300 450C500 450 400 150 600 150C800 150 700 450 900 450C1100 450 1000 150 1200 150" stroke="#2563EB" stroke-width="60" stroke-linecap="round"/>
  <path opacity="0.05" d="M0 450C200 450 100 150 300 150C500 150 400 450 600 450C800 450 700 150 900 150C1100 150 1000 450 1200 450" stroke="#10B981" stroke-width="60" stroke-linecap="round"/>

  <!-- Top Logo & Brand -->
  <g transform="translate(60, 50)">
    <path d="M16 2 L29 9.5 V22.5 L16 30 L3 22.5 V9.5 L16 2Z" transform="scale(2.5)" stroke="#2563EB" stroke-width="2.5" stroke-linejoin="round" />
    <path d="M16 8 L23 12 V20 L16 24 L9 20 V12 L16 8Z" transform="scale(2.5)" stroke="#10B981" stroke-width="2" stroke-linejoin="round" />
    <circle cx="40" cy="40" r="7.5" fill="#2563EB" />
    <circle cx="22.5" cy="30" r="5" fill="#10B981" />
    <circle cx="57.5" cy="50" r="5" fill="#10B981" />
    <text x="90" y="45" font-family="Inter, sans-serif" font-weight="800" font-size="40" fill="#0F172A">BMP</text>
    <text x="90" y="70" font-family="Inter, sans-serif" font-weight="400" font-size="16" fill="#64748B">Bioinformatics Mentorship Program</text>
  </g>

  <!-- Main Heading (More compact for square) -->
  <text x="60" y="200" font-family="Inter, sans-serif" font-weight="900" font-size="64" fill="#0F172A">Master <tspan fill="#2563EB">Bioinformatics.</tspan></text>
  
  <!-- Cohort Announcement Badge -->
  <rect x="60" y="240" width="860" height="70" rx="35" fill="#2563EB" />
  <text x="490" y="286" text-anchor="middle" font-family="Inter, sans-serif" font-weight="700" font-size="28" fill="#FFFFFF">Application Open: Cohort 02 (July–September 2026)</text>

  <!-- Content Section -->
  <g transform="translate(60, 390)">
    <text y="0" font-family="Inter, sans-serif" font-weight="700" font-size="32" fill="#0F172A">Intensive 12-Week Research Mentorship</text>
    
    <!-- Refined 'What You Get' Section -->
    <g transform="translate(0, 80)">
      <text y="0" font-family="Inter, sans-serif" font-weight="800" font-size="28" fill="#2563EB">What You Get:</text>
      
      <g transform="translate(0, 45)">
        <circle cx="10" cy="-8" r="6" fill="#2563EB" />
        <text x="30" y="0" font-family="Inter, sans-serif" font-weight="500" font-size="24" fill="#1E293B">1-on-1 Personalized Research Guidance</text>
      </g>
      
      <g transform="translate(0, 95)">
        <circle cx="10" cy="-8" r="6" fill="#2563EB" />
        <text x="30" y="0" font-family="Inter, sans-serif" font-weight="500" font-size="24" fill="#1E293B">Publication-ready Bioinformatics Analysis</text>
      </g>
      
      <g transform="translate(0, 145)">
        <circle cx="10" cy="-8" r="6" fill="#2563EB" />
        <text x="30" y="0" font-family="Inter, sans-serif" font-weight="500" font-size="24" fill="#1E293B">End-to-End Omics Data Analysis Training</text>
      </g>
      
      <g transform="translate(0, 195)">
        <circle cx="10" cy="-8" r="6" fill="#2563EB" />
        <text x="30" y="0" font-family="Inter, sans-serif" font-weight="500" font-size="24" fill="#1E293B">Access to Publication-ready Bioinformatics Pipelines</text>
      </g>
    </g>
  </g>

  <!-- Mentor Footer -->
  <rect y="840" width="1080" height="240" fill="#0F172A"/>
  <g transform="translate(60, 885)">
    <text y="30" font-family="Inter, sans-serif" font-weight="700" font-size="20" fill="#38BDF8">MENTORED BY</text>
    <text y="75" font-family="Inter, sans-serif" font-weight="800" font-size="40" fill="#FFFFFF">Md. Jubayer Hossain</text>
    <text y="110" font-family="Inter, sans-serif" font-weight="400" font-size="20" fill="#94A3B8">Founder &amp; CEO, DeepBio Limited</text>
    
    <!-- CTA Button (Side by side with mentor info for square) -->
    <g transform="translate(560, 5)">
      <rect width="400" height="110" rx="14" fill="#2563EB" />
      <text x="200" y="50" text-anchor="middle" font-family="Inter, sans-serif" font-weight="900" font-size="32" fill="#FFFFFF">APPLY NOW</text>
      <text x="200" y="85" text-anchor="middle" font-family="Inter, sans-serif" font-weight="700" font-size="22" fill="#FFFFFF">mdjubayerhossain.com/bmp</text>
    </g>
  </g>
</svg>
