<svg width="1080" height="1350" viewBox="0 0 1080 1350" fill="none" xmlns="http://www.w3.org/2000/svg">
  <!-- Background -->
  <rect width="1080" height="1350" fill="#FFFFFF"/>
  <rect width="1080" height="420" fill="#F8FAFC"/>
  
  <!-- Decorative Helix Patterns -->
  <path opacity="0.05" d="M0 200C200 200 100 600 300 600C500 600 400 200 600 200C800 200 700 600 900 600C1100 600 1000 200 1200 200" stroke="#2563EB" stroke-width="80" stroke-linecap="round"/>
  <path opacity="0.05" d="M0 600C200 600 100 200 300 200C500 200 400 600 600 600C800 600 700 200 900 200C1100 200 1000 600 1200 600" stroke="#10B981" stroke-width="80" stroke-linecap="round"/>

  <!-- Top Logo & Brand -->
  <g transform="translate(80, 80)">
    <path d="M16 2 L29 9.5 V22.5 L16 30 L3 22.5 V9.5 L16 2Z" transform="scale(3)" stroke="#2563EB" stroke-width="2.5" stroke-linejoin="round" />
    <path d="M16 8 L23 12 V20 L16 24 L9 20 V12 L16 8Z" transform="scale(3)" stroke="#10B981" stroke-width="2" stroke-linejoin="round" />
    <circle cx="48" cy="48" r="9" fill="#2563EB" />
    <circle cx="27" cy="36" r="6" fill="#10B981" />
    <circle cx="69" cy="60" r="6" fill="#10B981" />
    <text x="110" y="55" font-family="Inter, sans-serif" font-weight="800" font-size="48" fill="#0F172A">BMP</text>
    <text x="110" y="85" font-family="Inter, sans-serif" font-weight="400" font-size="20" fill="#64748B">Bioinformatics Mentorship Program</text>
  </g>

  <!-- Main Heading -->
  <text x="80" y="320" font-family="Inter, sans-serif" font-weight="900" font-size="72" fill="#0F172A">Master</text>
  <text x="80" y="410" font-family="Inter, sans-serif" font-weight="900" font-size="72" fill="#2563EB">Bioinformatics.</text>
  
  <!-- Cohort Announcement Badge -->
  <rect x="80" y="480" width="920" height="80" rx="40" fill="#2563EB" />
  <text x="540" y="532" text-anchor="middle" font-family="Inter, sans-serif" font-weight="700" font-size="32" fill="#FFFFFF">Application Open: Cohort 02 (July–September 2026)</text>

  <!-- Content Section -->
  <g transform="translate(80, 640)">
    <text y="0" font-family="Inter, sans-serif" font-weight="700" font-size="36" fill="#0F172A">12-Week Intensive Research Mentorship</text>
    <text y="50" font-family="Inter, sans-serif" font-weight="400" font-size="26" fill="#475569">An expert-led journey from raw data to publication-ready research.</text>

    <!-- Refined 'What You Get' Section -->
    <g transform="translate(0, 150)">
      <text y="0" font-family="Inter, sans-serif" font-weight="800" font-size="32" fill="#0F172A">What You Get:</text>
      
      <g transform="translate(0, 50)">
        <circle cx="15" cy="-8" r="8" fill="#2563EB" />
        <text x="40" y="0" font-family="Inter, sans-serif" font-weight="500" font-size="28" fill="#1E293B">1-on-1 Personalized Research Guidance</text>
      </g>
      
      <g transform="translate(0, 110)">
        <circle cx="15" cy="-8" r="8" fill="#2563EB" />
        <text x="40" y="0" font-family="Inter, sans-serif" font-weight="500" font-size="28" fill="#1E293B">Publication-ready Bioinformatics Analysis</text>
      </g>
      
      <g transform="translate(0, 170)">
        <circle cx="15" cy="-8" r="8" fill="#2563EB" />
        <text x="40" y="0" font-family="Inter, sans-serif" font-weight="500" font-size="28" fill="#1E293B">End-to-End Omics Data Analysis Training</text>
      </g>
      
      <g transform="translate(0, 230)">
        <circle cx="15" cy="-8" r="8" fill="#2563EB" />
        <text x="40" y="0" font-family="Inter, sans-serif" font-weight="500" font-size="28" fill="#1E293B">Access to Publication-ready Bioinformatics Pipelines</text>
      </g>
    </g>
  </g>

  <!-- Mentor Footer -->
  <rect y="1100" width="1080" height="250" fill="#0F172A"/>
  <g transform="translate(80, 1150)">
    <text y="40" font-family="Inter, sans-serif" font-weight="700" font-size="22" fill="#38BDF8">MENTORED BY</text>
    <text y="90" font-family="Inter, sans-serif" font-weight="800" font-size="44" fill="#FFFFFF">Md. Jubayer Hossain</text>
    <text y="130" font-family="Inter, sans-serif" font-weight="400" font-size="22" fill="#94A3B8">Founder &amp; CEO, DeepBio Limited</text>
    
    <!-- CTA Button (Enhanced Link Clarity) -->
    <g transform="translate(560, 15)">
      <rect width="440" height="85" rx="12" fill="#2563EB" />
      <text x="220" y="52" text-anchor="middle" font-family="Inter, sans-serif" font-weight="900" font-size="36" fill="#FFFFFF">APPLY NOW</text>
      
      <!-- Website link: Increased font size, weight, and contrast for maximum clarity -->
      <text x="220" y="130" text-anchor="middle" font-family="Inter, sans-serif" font-weight="700" font-size="28" fill="#FFFFFF">mdjubayerhossain.com/bmp</text>
    </g>
  </g>
</svg>
