<svg width="400" height="100" viewBox="0 0 400 100" fill="none" xmlns="http://www.w3.org/2000/svg">
  <g transform="translate(10, 10)">
    <!-- Official BMP Logo Icon -->
    <g transform="scale(2.2)">
      <path d="M16 2 L29 9.5 V22.5 L16 30 L3 22.5 V9.5 L16 2Z" stroke="#2563EB" stroke-width="2.5" stroke-linejoin="round" />
      <path d="M16 8 L23 12 V20 L16 24 L9 20 V12 L16 8Z" stroke="#10B981" stroke-width="2" stroke-linejoin="round" />
      <circle cx="16" cy="16" r="3" fill="#2563EB" />
      <circle cx="9" cy="12" r="2" fill="#10B981" />
      <circle cx="23" cy="20" r="2" fill="#10B981" />
      <circle cx="9" cy="20" r="2" fill="#10B981" />
      <circle cx="23" cy="12" r="2" fill="#10B981" />
      <path d="M9 12 L16 16 L23 20" stroke="#2563EB" stroke-width="1.5" stroke-linecap="round" />
      <path d="M9 20 L16 16 L23 12" stroke="#2563EB" stroke-width="1.5" stroke-linecap="round" />
    </g>
    <text x="90" y="45" font-family="sans-serif" font-weight="800" font-size="36" fill="#0F172A">BMP</text>
    <text x="90" y="68" font-family="sans-serif" font-weight="400" font-size="14" fill="#64748B">Bioinformatics Mentorship Program</text>
  </g>
</svg>