<svg xmlns="http://www.w3.org/2000/svg" viewBox="0 0 320 240">
  <rect width="320" height="240" fill="#ffffff" rx="6"/>

  <!-- Plot area -->
  <rect x="44" y="18" width="252" height="190" fill="#f8fafc" stroke="#e2e8f0" stroke-width="0.8"/>

  <!-- Grid lines -->
  <line x1="44" y1="66" x2="296" y2="66" stroke="#f1f5f9" stroke-width="1"/>
  <line x1="44" y1="113" x2="296" y2="113" stroke="#f1f5f9" stroke-width="1"/>
  <line x1="44" y1="161" x2="296" y2="161" stroke="#f1f5f9" stroke-width="1"/>

  <!-- Significance threshold (horizontal dashed) -->
  <line x1="44" y1="179" x2="296" y2="179" stroke="#cbd5e1" stroke-width="0.8" stroke-dasharray="3,3"/>

  <!-- FC thresholds (vertical dashed) -->
  <line x1="138" y1="18" x2="138" y2="208" stroke="#cbd5e1" stroke-width="0.8" stroke-dasharray="3,3"/>
  <line x1="202" y1="18" x2="202" y2="208" stroke="#cbd5e1" stroke-width="0.8" stroke-dasharray="3,3"/>

  <!-- Axes -->
  <line x1="44" y1="208" x2="296" y2="208" stroke="#475569" stroke-width="1.2"/>
  <line x1="44" y1="18"  x2="44"  y2="208" stroke="#475569" stroke-width="1.2"/>

  <!-- X tick labels -->
  <text x="44"  y="218" text-anchor="middle" font-family="Inter,system-ui,sans-serif" font-size="6.5" fill="#64748b">-6</text>
  <text x="107" y="218" text-anchor="middle" font-family="Inter,system-ui,sans-serif" font-size="6.5" fill="#64748b">-3</text>
  <text x="170" y="218" text-anchor="middle" font-family="Inter,system-ui,sans-serif" font-size="6.5" fill="#64748b">0</text>
  <text x="233" y="218" text-anchor="middle" font-family="Inter,system-ui,sans-serif" font-size="6.5" fill="#64748b">3</text>
  <text x="296" y="218" text-anchor="middle" font-family="Inter,system-ui,sans-serif" font-size="6.5" fill="#64748b">6</text>

  <!-- Y tick labels -->
  <text x="40" y="211" text-anchor="end" font-family="Inter,system-ui,sans-serif" font-size="6.5" fill="#64748b">0</text>
  <text x="40" y="163" text-anchor="end" font-family="Inter,system-ui,sans-serif" font-size="6.5" fill="#64748b">2</text>
  <text x="40" y="115" text-anchor="end" font-family="Inter,system-ui,sans-serif" font-size="6.5" fill="#64748b">4</text>
  <text x="40" y="68"  text-anchor="end" font-family="Inter,system-ui,sans-serif" font-size="6.5" fill="#64748b">6</text>
  <text x="40" y="22"  text-anchor="end" font-family="Inter,system-ui,sans-serif" font-size="6.5" fill="#64748b">8</text>

  <!-- Axis titles -->
  <text x="170" y="232" text-anchor="middle" font-family="Inter,system-ui,sans-serif" font-size="7.5" font-weight="600" fill="#334155">log₂ Fold Change</text>
  <text x="12" y="113" text-anchor="middle" font-family="Inter,system-ui,sans-serif" font-size="7.5" font-weight="600" fill="#334155" transform="rotate(-90,12,113)">-log₁₀(p-value)</text>

  <!-- NON-SIGNIFICANT (gray) -->
  <circle cx="155" cy="193" r="2"   fill="#94a3b8" opacity="0.6"/>
  <circle cx="168" cy="197" r="2"   fill="#94a3b8" opacity="0.6"/>
  <circle cx="178" cy="190" r="2"   fill="#94a3b8" opacity="0.6"/>
  <circle cx="145" cy="195" r="2"   fill="#94a3b8" opacity="0.6"/>
  <circle cx="188" cy="193" r="2"   fill="#94a3b8" opacity="0.6"/>
  <circle cx="162" cy="186" r="2"   fill="#94a3b8" opacity="0.6"/>
  <circle cx="174" cy="183" r="2"   fill="#94a3b8" opacity="0.6"/>
  <circle cx="158" cy="180" r="2"   fill="#94a3b8" opacity="0.6"/>
  <circle cx="183" cy="186" r="2"   fill="#94a3b8" opacity="0.6"/>
  <circle cx="150" cy="181" r="2"   fill="#94a3b8" opacity="0.6"/>
  <circle cx="130" cy="191" r="2"   fill="#94a3b8" opacity="0.6"/>
  <circle cx="120" cy="186" r="2"   fill="#94a3b8" opacity="0.6"/>
  <circle cx="206" cy="192" r="2"   fill="#94a3b8" opacity="0.6"/>
  <circle cx="215" cy="186" r="2"   fill="#94a3b8" opacity="0.6"/>
  <circle cx="170" cy="168" r="2"   fill="#94a3b8" opacity="0.6"/>
  <circle cx="156" cy="163" r="2"   fill="#94a3b8" opacity="0.6"/>
  <circle cx="185" cy="170" r="2"   fill="#94a3b8" opacity="0.6"/>
  <circle cx="148" cy="175" r="2"   fill="#94a3b8" opacity="0.6"/>
  <circle cx="125" cy="178" r="2"   fill="#94a3b8" opacity="0.6"/>
  <circle cx="210" cy="180" r="2"   fill="#94a3b8" opacity="0.6"/>

  <!-- DOWNREGULATED (blue) -->
  <circle cx="109" cy="67"  r="2.5" fill="#3b82f6" opacity="0.88"/>
  <circle cx="100" cy="82"  r="2.5" fill="#3b82f6" opacity="0.88"/>
  <circle cx="118" cy="110" r="2.5" fill="#3b82f6" opacity="0.88"/>
  <circle cx="86"  cy="128" r="2.5" fill="#3b82f6" opacity="0.88"/>
  <circle cx="130" cy="155" r="2.5" fill="#3b82f6" opacity="0.88"/>
  <circle cx="73"  cy="118" r="2.5" fill="#3b82f6" opacity="0.88"/>
  <circle cx="105" cy="140" r="2.5" fill="#3b82f6" opacity="0.88"/>
  <circle cx="92"  cy="154" r="2"   fill="#3b82f6" opacity="0.88"/>
  <circle cx="114" cy="60"  r="2.5" fill="#3b82f6" opacity="0.88"/>
  <circle cx="78"  cy="100" r="2"   fill="#3b82f6" opacity="0.88"/>

  <!-- UPREGULATED (red) -->
  <circle cx="222" cy="33"  r="2.5" fill="#ef4444" opacity="0.88"/>
  <circle cx="238" cy="55"  r="2.5" fill="#ef4444" opacity="0.88"/>
  <circle cx="258" cy="115" r="2.5" fill="#ef4444" opacity="0.88"/>
  <circle cx="215" cy="88"  r="2.5" fill="#ef4444" opacity="0.88"/>
  <circle cx="248" cy="140" r="2.5" fill="#ef4444" opacity="0.88"/>
  <circle cx="228" cy="105" r="2.5" fill="#ef4444" opacity="0.88"/>
  <circle cx="205" cy="148" r="2.5" fill="#ef4444" opacity="0.88"/>
  <circle cx="268" cy="95"  r="2"   fill="#ef4444" opacity="0.88"/>
  <circle cx="244" cy="70"  r="2"   fill="#ef4444" opacity="0.88"/>
  <circle cx="210" cy="68"  r="2"   fill="#ef4444" opacity="0.88"/>

  <!-- Gene label: MYC -->
  <line x1="222" y1="33" x2="232" y2="24" stroke="#dc2626" stroke-width="0.7"/>
  <text x="233" y="23" font-family="Inter,system-ui,sans-serif" font-size="6.5" font-weight="700" fill="#dc2626">MYC</text>

  <!-- Gene label: EGFR -->
  <line x1="238" y1="55" x2="250" y2="47" stroke="#dc2626" stroke-width="0.7"/>
  <text x="252" y="46" font-family="Inter,system-ui,sans-serif" font-size="6.5" font-weight="700" fill="#dc2626">EGFR</text>

  <!-- Gene label: BRCA1 -->
  <line x1="114" y1="60" x2="102" y2="50" stroke="#1d4ed8" stroke-width="0.7"/>
  <text x="56" y="49" font-family="Inter,system-ui,sans-serif" font-size="6.5" font-weight="700" fill="#1d4ed8">BRCA1</text>

  <!-- Gene label: PTEN -->
  <line x1="109" y1="67" x2="96" y2="75" stroke="#1d4ed8" stroke-width="0.7"/>
  <text x="58" y="79" font-family="Inter,system-ui,sans-serif" font-size="6.5" font-weight="700" fill="#1d4ed8">PTEN</text>

  <!-- p threshold label -->
  <text x="298" y="182" font-family="Inter,system-ui,sans-serif" font-size="5.5" fill="#94a3b8">p=0.05</text>

  <!-- Legend box -->
  <rect x="52" y="21" width="128" height="13" rx="3" fill="white" stroke="#e2e8f0" stroke-width="0.6"/>
  <circle cx="61"  cy="27.5" r="2.5" fill="#ef4444" opacity="0.88"/>
  <text    x="66"  y="31"   font-family="Inter,system-ui,sans-serif" font-size="6" fill="#475569">Up-regulated</text>
  <circle cx="108" cy="27.5" r="2.5" fill="#3b82f6" opacity="0.88"/>
  <text    x="113" y="31"   font-family="Inter,system-ui,sans-serif" font-size="6" fill="#475569">Down</text>
  <circle cx="136" cy="27.5" r="2"   fill="#94a3b8" opacity="0.6"/>
  <text    x="141" y="31"   font-family="Inter,system-ui,sans-serif" font-size="6" fill="#475569">NS</text>
</svg>
